<?xml version="1.0" encoding="UTF-8" standalone="no"?>
<!DOCTYPE svg PUBLIC "-//W3C//DTD SVG 1.1//EN" "http://www.w3.org/Graphics/SVG/1.1/DTD/svg11.dtd">
<svg xmlns="http://www.w3.org/2000/svg" version="1.1" viewBox="0 0 165 165">
<g stroke-width="2.00" fill="none" stroke-linecap="butt">
<path stroke="#d6a2a8" vector-effect="non-scaling-stroke" d="
  M 96.65 52.13
  Q 106.52 60.72 117.21 68.29
  Q 120.00 70.27 124.57 70.66
  A 1.86 1.86 -82.3 0 0 126.55 69.15
  Q 126.77 67.98 126.79 66.25
  Q 127.06 44.79 126.94 23.32
  C 126.91 18.76 126.99 14.55 124.00 12.29
  C 118.94 8.45 97.28 7.81 92.39 13.84
  C 89.38 17.54 90.67 41.94 90.79 44.26
  C 90.98 48.18 93.95 49.77 96.65 52.13"
/>
<path stroke="#d6a2a8" vector-effect="non-scaling-stroke" d="
  M 43.03 70.30
  Q 46.37 70.26 50.03 67.29
  Q 62.41 57.23 75.25 47.74
  Q 76.84 46.56 76.92 44.58
  Q 77.41 32.42 76.32 19.68
  C 75.89 14.68 74.28 11.84 69.29 10.93
  Q 58.25 8.90 47.18 10.95
  Q 39.75 12.32 39.78 20.00
  Q 39.89 43.04 40.11 67.44
  Q 40.14 70.33 43.03 70.30"
/>
<path stroke="#d79ea6" vector-effect="non-scaling-stroke" d="
  M 104.66 72.91
  C 101.51 67.16 89.11 59.71 83.29 56.41
  A 1.17 1.16 43.5 0 0 82.07 56.44
  C 74.70 61.26 66.45 66.39 60.81 73.07
  Q 57.84 76.59 62.00 75.55
  Q 73.44 72.70 85.17 72.68
  C 91.03 72.67 97.27 73.86 103.33 74.81
  Q 105.93 75.22 104.66 72.91"
/>
<path stroke="#d79ea6" vector-effect="non-scaling-stroke" d="
  M 140.75 117.99
  L 147.86 115.33
  Q 150.41 114.38 148.79 111.23
  L 134.12 82.66
  A 1.46 1.24 60.6 0 0 132.24 81.97
  L 125.94 85.96
  A 1.93 1.67 59.8 0 0 125.48 88.39
  C 130.70 97.91 137.23 107.19 139.78 117.35
  A 0.85 0.71 73.4 0 0 140.75 117.99"
/>
<path stroke="#d79ea6" vector-effect="non-scaling-stroke" d="
  M 14.56 111.81
  Q 13.69 113.60 14.93 114.53
  Q 18.79 117.41 23.56 116.93
  A 1.12 0.88 -78.1 0 0 24.36 116.26
  Q 30.34 102.02 38.32 88.79
  A 0.83 0.50 -56.4 0 0 38.36 87.88
  Q 34.93 85.12 30.75 83.74
  A 0.98 0.88 -64.8 0 0 29.69 84.19
  Q 21.48 97.65 14.56 111.81"
/>
<path stroke="#d6a2a8" vector-effect="non-scaling-stroke" d="
  M 124.9090 122.4271
  A 42.55 36.88 0.4 0 0 82.6175 85.2509
  A 42.55 36.88 0.4 0 0 39.8110 121.8329
  A 42.55 36.88 0.4 0 0 82.1025 159.0091
  A 42.55 36.88 0.4 0 0 124.9090 122.4271"
/>
</g>
<path fill="#890309" d="
  M 0.00 0.00
  L 165.00 0.00
  L 165.00 165.00
  L 0.00 165.00
  L 0.00 0.00
  Z
  M 96.65 52.13
  Q 106.52 60.72 117.21 68.29
  Q 120.00 70.27 124.57 70.66
  A 1.86 1.86 -82.3 0 0 126.55 69.15
  Q 126.77 67.98 126.79 66.25
  Q 127.06 44.79 126.94 23.32
  C 126.91 18.76 126.99 14.55 124.00 12.29
  C 118.94 8.45 97.28 7.81 92.39 13.84
  C 89.38 17.54 90.67 41.94 90.79 44.26
  C 90.98 48.18 93.95 49.77 96.65 52.13
  Z
  M 43.03 70.30
  Q 46.37 70.26 50.03 67.29
  Q 62.41 57.23 75.25 47.74
  Q 76.84 46.56 76.92 44.58
  Q 77.41 32.42 76.32 19.68
  C 75.89 14.68 74.28 11.84 69.29 10.93
  Q 58.25 8.90 47.18 10.95
  Q 39.75 12.32 39.78 20.00
  Q 39.89 43.04 40.11 67.44
  Q 40.14 70.33 43.03 70.30
  Z
  M 104.66 72.91
  C 101.51 67.16 89.11 59.71 83.29 56.41
  A 1.17 1.16 43.5 0 0 82.07 56.44
  C 74.70 61.26 66.45 66.39 60.81 73.07
  Q 57.84 76.59 62.00 75.55
  Q 73.44 72.70 85.17 72.68
  C 91.03 72.67 97.27 73.86 103.33 74.81
  Q 105.93 75.22 104.66 72.91
  Z
  M 140.75 117.99
  L 147.86 115.33
  Q 150.41 114.38 148.79 111.23
  L 134.12 82.66
  A 1.46 1.24 60.6 0 0 132.24 81.97
  L 125.94 85.96
  A 1.93 1.67 59.8 0 0 125.48 88.39
  C 130.70 97.91 137.23 107.19 139.78 117.35
  A 0.85 0.71 73.4 0 0 140.75 117.99
  Z
  M 14.56 111.81
  Q 13.69 113.60 14.93 114.53
  Q 18.79 117.41 23.56 116.93
  A 1.12 0.88 -78.1 0 0 24.36 116.26
  Q 30.34 102.02 38.32 88.79
  A 0.83 0.50 -56.4 0 0 38.36 87.88
  Q 34.93 85.12 30.75 83.74
  A 0.98 0.88 -64.8 0 0 29.69 84.19
  Q 21.48 97.65 14.56 111.81
  Z
  M 124.9090 122.4271
  A 42.55 36.88 0.4 0 0 82.6175 85.2509
  A 42.55 36.88 0.4 0 0 39.8110 121.8329
  A 42.55 36.88 0.4 0 0 82.1025 159.0091
  A 42.55 36.88 0.4 0 0 124.9090 122.4271
  Z"
/>
<path fill="#f4f6f5" d="
  M 96.65 52.13
  C 93.95 49.77 90.98 48.18 90.79 44.26
  C 90.67 41.94 89.38 17.54 92.39 13.84
  C 97.28 7.81 118.94 8.45 124.00 12.29
  C 126.99 14.55 126.91 18.76 126.94 23.32
  Q 127.06 44.79 126.79 66.25
  Q 126.77 67.98 126.55 69.15
  A 1.86 1.86 -82.3 0 1 124.57 70.66
  Q 120.00 70.27 117.21 68.29
  Q 106.52 60.72 96.65 52.13
  Z"
/>
<path fill="#f4f6f5" d="
  M 43.03 70.30
  Q 40.14 70.33 40.11 67.44
  Q 39.89 43.04 39.78 20.00
  Q 39.75 12.32 47.18 10.95
  Q 58.25 8.90 69.29 10.93
  C 74.28 11.84 75.89 14.68 76.32 19.68
  Q 77.41 32.42 76.92 44.58
  Q 76.84 46.56 75.25 47.74
  Q 62.41 57.23 50.03 67.29
  Q 46.37 70.26 43.03 70.30
  Z"
/>
<path fill="#f6eff2" d="
  M 83.29 56.41
  C 89.11 59.71 101.51 67.16 104.66 72.91
  Q 105.93 75.22 103.33 74.81
  C 97.27 73.86 91.03 72.67 85.17 72.68
  Q 73.44 72.70 62.00 75.55
  Q 57.84 76.59 60.81 73.07
  C 66.45 66.39 74.70 61.26 82.07 56.44
  A 1.17 1.16 43.5 0 1 83.29 56.41
  Z"
/>
<path fill="#f6eff2" d="
  M 140.75 117.99
  A 0.85 0.71 73.4 0 1 139.78 117.35
  C 137.23 107.19 130.70 97.91 125.48 88.39
  A 1.93 1.67 59.8 0 1 125.94 85.96
  L 132.24 81.97
  A 1.46 1.24 60.6 0 1 134.12 82.66
  L 148.79 111.23
  Q 150.41 114.38 147.86 115.33
  L 140.75 117.99
  Z"
/>
<path fill="#f6eff2" d="
  M 14.56 111.81
  Q 21.48 97.65 29.69 84.19
  A 0.98 0.88 -64.8 0 1 30.75 83.74
  Q 34.93 85.12 38.36 87.88
  A 0.83 0.50 -56.4 0 1 38.32 88.79
  Q 30.34 102.02 24.36 116.26
  A 1.12 0.88 -78.1 0 1 23.56 116.93
  Q 18.79 117.41 14.93 114.53
  Q 13.69 113.60 14.56 111.81
  Z"
/>
<ellipse fill="#f4f6f5" cx="0.00" cy="0.00" transform="translate(82.36,122.13) rotate(0.4)" rx="42.55" ry="36.88"/>
</svg>
