<?xml version="1.0" ?><!DOCTYPE svg  PUBLIC '-//W3C//DTD SVG 1.1//EN'  'http://www.w3.org/Graphics/SVG/1.1/DTD/svg11.dtd'><svg enable-background="new 0 0 512 512" height="512px" version="1.1" viewBox="0 0 512 512" width="512px" xml:space="preserve" xmlns="http://www.w3.org/2000/svg" xmlns:xlink="http://www.w3.org/1999/xlink"><g id="Layer_22"><style> path { fill: #890309; } </style><path d="M233.823,494.49c15.755,2.646,30.966,3.214,44.502,2.048c2.258-35.94,7.709-80.396,9.972-116.346c0,0,0,0-0.01,0   c4.597,0.235,8.811-1.646,10.839-5.37l3.333-6.078l1.813,1.001l11.427-20.816c3.422-6.233,1.138-14.055-5.097-17.466   l-41.357-22.699L423.303,28.087c2.245-4.086-0.009-9.604-5.008-12.349s-10.858-1.656-13.095,2.411L251.142,298.815l-41.36-22.728   c-6.238-3.392-14.054-1.117-17.47,5.096l-11.438,20.838l1.681,0.901l-3.327,6.076c-1.647,3.019-1.515,6.576,0.009,9.83   c-28.903,21.179-62.623,52.189-91.408,73.164c7.743,14.778,19.028,30.323,33.255,44.446c28.108-32,57.492-66.861,85.277-99.371   l3.479,1.902c-27.305,33.704-55.895,69.233-83.542,102.476c13.687,12.742,29.741,24.033,46.99,32.874   c20.827-39.969,42.184-80.828,63.092-120.767l3.442,1.883c-19.833,40.408-40.081,81.758-59.771,122.196   c15.22,7.153,31.191,12.397,46.799,15.563c11.217-40.821,24.183-84.287,36.018-125.119l3.444,1.883   C255.743,410.448,243.747,454.081,233.823,494.49z M186,304.824l113.009,62.039l-3.332,6.075   c-2.214,4.019-8.002,5.077-12.912,2.383l-95.182-52.229c-4.916-2.685-7.12-8.163-4.916-12.19L186,304.824z"/></g></svg>
